{"title":"White Zombie - Astro-Creep 2000 [24-bit 44.1kHz flac] MC Lurken","uid":11714128,"size":632437070,"categoryP":"audio","categoryS":"flac","magnet":"?xt=urn:btih:e9262a838da1bdcf5926dbd1e3f77fd907ec2dc8&amp;dn=White+Zombie+-+Astro-Creep+2000+%5B24-bit+44.1kHz+flac%5D+MC+Lurken&amp;tr=udp%3A%2F%2Ftracker.openbittorrent.com%3A80&amp;tr=udp%3A%2F%2Fopen.demonii.com%3A1337&amp;tr=udp%3A%2F%2Ftracker.coppersurfer.tk%3A6969&amp;tr=udp%3A%2F%2Fexodus.desync.com%3A6969","seeders":0,"leechers":4,"uploader":"beavis39","files":15,"time":1424468020,"description":"White Zombie - Astro-Creep 2000 [24-bit 44.1kHz flac] MC Lurken\n\n\n\n1 - Electric Head Pt. 1 (The Agony)\n2 - Super-Charger Heaven\n3 - Real Solution #9\n4 - Creature Of The Wheel\n5 - Electric Head Pt. 2 (The Ecstasy)\n6 - Grease Paint And Monkey Brains\n7 - I, Zombie\n8 - More Human Than Human\n9 - El Phantasmo And The Chicken-Run Blast-O-Rama\n10 - Blur The Technicolor\n11 - Blood, Milk And Sky (silence removed)\n\n\n\nfoobar2000 1.3.7 / Dynamic Range Meter 1.1.1\nlog date: 2015-02-20 15:13:59\n\n--------------------------------------------------------------------------------\nAnalyzed: White Zombie / Astro-Creep 2000\n--------------------------------------------------------------------------------\n\nDR         Peak         RMS     Duration Track\n--------------------------------------------------------------------------------\nDR7        0.00 dB    -8.78 dB      4:55 01-Electric Head Pt. 1 (The Agony)\nDR7        0.00 dB    -7.87 dB      3:38 02-Super-Charger Heaven\nDR7        0.00 dB    -9.28 dB      4:44 03-Real Solution\nDR7        0.00 dB    -8.88 dB      3:25 04-Creature Of The Wheel\nDR8        0.00 dB    -9.27 dB      3:54 05-Electric Head Pt. 2 (The Ecstasy)\nDR8        0.00 dB   -10.72 dB      3:49 06-Grease Paint And Monkey Brains\nDR8        0.00 dB    -9.16 dB      3:32 07-I, Zombie\nDR7        0.00 dB    -9.26 dB      4:29 08-More Human Than Human\nDR8        0.00 dB    -9.38 dB      4:13 09-El Phantasmo And The Chicken-Run Blast-O-Rama\nDR7        0.00 dB    -8.86 dB      4:09 10-Blur The Technicolor\nDR8        0.00 dB   -10.31 dB      8:45 11-Blood, Milk And Sky\n--------------------------------------------------------------------------------\n\nNumber of tracks:  11\nOfficial DR value: DR7\n\nSamplerate:        44100 Hz\nChannels:          2\nBits per sample:   24\nBitrate:           1598 kbps\nCodec:             FLAC","torrent":{"xt":"urn:btih:e9262a838da1bdcf5926dbd1e3f77fd907ec2dc8","amp;dn":"White+Zombie+-+Astro-Creep+2000+%5B24-bit+44.1kHz+flac%5D+MC+Lurken","amp;tr":["udp%3A%2F%2Ftracker.openbittorrent.com%3A80","udp%3A%2F%2Fopen.demonii.com%3A1337","udp%3A%2F%2Ftracker.coppersurfer.tk%3A6969","udp%3A%2F%2Fexodus.desync.com%3A6969"],"infoHash":"e9262a838da1bdcf5926dbd1e3f77fd907ec2dc8","infoHashBuffer":{"type":"Buffer","data":[233,38,42,131,141,161,189,207,89,38,219,209,227,247,127,217,7,236,45,200]},"announce":[],"urlList":[]}}